
<svg width="41px" height="40px" viewBox="0 0 41 40" version="1.1" xmlns="http://www.w3.org/2000/svg" xmlns:xlink="http://www.w3.org/1999/xlink">
    <g id="Webb" stroke="none" stroke-width="1" fill="none" fill-rule="evenodd">
        <g id="Dag-" transform="translate(-980.000000, -531.000000)">
            <g id="Mockup" transform="translate(880.000000, 124.000000)">
                <g id="Group-2">
                    <g id="Group" transform="translate(100.583554, 407.038140)">
                        <g id="Evening/return">
                            <circle id="Oval" fill-opacity="0.9" fill="#555555" fill-rule="nonzero" opacity="0.9" cx="20" cy="20" r="20"></circle>
                            <path d="M26.031746,23.4388151 C24.6122743,25.5560014 21.9314608,26.5143414 19.4404519,25.7950778 C16.9494429,25.0758142 15.2402598,22.8498897 15.2380973,20.3222153 C15.2359348,17.7945409 16.9413069,15.565852 19.4310818,14.8425562 C21.9208566,14.1192604 24.6033061,15.0732585 26.0263985,17.1881435" id="Path" stroke="#E4E4E4" stroke-width="1.5" stroke-linecap="round" transform="translate(20.634921, 20.317460) scale(-1, 1) translate(-20.634921, -20.317460) "></path>
                            <path d="M17.6405496,18.9926439 L15.3617826,18.7647672 C14.8122388,18.7098128 14.4112948,18.2197701 14.4662492,17.6702263 C14.4910194,17.422524 14.6072877,17.1929663 14.7923216,17.0264358 L16.5213367,15.4703222 C16.9318468,15.1008632 17.5641366,15.1341416 17.9335956,15.5446516 C18.0988579,15.7282763 18.1903015,15.9665746 18.1903015,16.2136164 L18.1903015,18.4951253 C18.1903015,18.7712676 17.9664439,18.9951253 17.6903015,18.9951253 C17.6736866,18.9951253 17.657082,18.9942971 17.6405496,18.9926439 Z" id="Path" fill="#E4E4E4" fill-rule="nonzero" transform="translate(16.079278, 16.507937) scale(-1, 1) translate(-16.079278, -16.507937) "></path>
                        </g>
                    </g>
                </g>
            </g>
        </g>
    </g>
</svg>